<svg width="100%" height="100%" viewBox="0 0 16 16" fill="none" xmlns="http://www.w3.org/2000/svg">
<path d="M7.32004 4.12667L4.84671 1.65333C4.80004 1.60667 4.74004 1.56667 4.67338 1.54C4.66671 1.54 4.66004 1.54 4.65338 1.53333C4.60004 1.51333 4.54671 1.5 4.48671 1.5C4.35338 1.5 4.22671 1.55333 4.13338 1.64667L1.64671 4.12667C1.45338 4.32 1.45338 4.64 1.64671 4.83333C1.84004 5.02667 2.16004 5.02667 2.35338 4.83333L3.98671 3.2V14C3.98671 14.2733 4.21338 14.5 4.48671 14.5C4.76004 14.5 4.98671 14.2733 4.98671 14V3.20667L6.61338 4.83333C6.71338 4.93333 6.84004 4.98 6.96671 4.98C7.09338 4.98 7.22004 4.93333 7.32004 4.83333C7.51338 4.64 7.51338 4.32667 7.32004 4.12667Z" fill="currentColor"/>
<path d="M14.3532 11.1667C14.1599 10.9733 13.8399 10.9733 13.6466 11.1667L12.0132 12.8V2C12.0132 1.72667 11.7866 1.5 11.5132 1.5C11.2399 1.5 11.0132 1.72667 11.0132 2V12.7933L9.38658 11.1667C9.19325 10.9733 8.87325 10.9733 8.67991 11.1667C8.48658 11.36 8.48658 11.68 8.67991 11.8733L11.1532 14.3467C11.1999 14.3933 11.2599 14.4333 11.3266 14.46C11.3332 14.46 11.3399 14.46 11.3466 14.4667C11.3999 14.4867 11.4599 14.5 11.5199 14.5C11.6532 14.5 11.7799 14.4467 11.8732 14.3533L14.3532 11.8733C14.5466 11.6733 14.5466 11.36 14.3532 11.1667Z" fill="currentColor"/>
</svg>